# xmcd
#
# Track frame offsets:
#	150
#	21750
#	38707
#	56197
#	72102
#	88317
#	105677
#	118997
#	137292
#	152425
#	169137
#	187405
#	202637
#	224095
#	237980
#
# Disc length: 3406 seconds
#
# Revision: 1
# Processed by: cddbd v1.5.1PL0 Copyright (c) Steve Scherf et al.
# Submitted via: EasyCDDAExtractor 6.5.7.1
#
DISCID=d90d4c0f
DTITLE=Echo do Minuano - Eco do Minuano and Bonitinho
DYEAR=2001
DGENRE=Country
TTITLE0=Campeiro e Brasileiro
TTITLE1=Baile de pé no Chão
TTITLE2=Se a Gaita Chora
TTITLE3=Carro do Amor
TTITLE4=Minha Louca
TTITLE5=A Mulher da minha Vida
TTITLE6=Cavalo Marchados
TTITLE7=Primeira Prenda
TTITLE8=Moça
TTITLE9=Eu sou Feliz
TTITLE10=Mocinha Dançadeira
TTITLE11=Fora da Lei
TTITLE12=Hey
TTITLE13=Coração Ferido
TTITLE14=Mata Virgem (Instrumental)
EXTD=
EXTT0=
EXTT1=
EXTT2=
EXTT3=
EXTT4=
EXTT5=
EXTT6=
EXTT7=
EXTT8=
EXTT9=
EXTT10=
EXTT11=
EXTT12=
EXTT13=
EXTT14=
PLAYORDER=
